# xmcd
#
# Track frame offsets:
#	150
#	21084
#	37796
#	54668
#	68792
#	83403
#	99025
#	115209
#	130397
#	137835
#	149265
#	167689
#	177840
#	186801
#	207915
#	226422
#	244139
#	261907
#	275817
#	292141
#	312019
#
# Disc length: 4442 seconds
#
# Revision: 1
# Processed by: cddbd v1.5.2PL0 Copyright (c) Steve Scherf et al.
# Submitted via: audiograbber 1.83.01
#
DISCID=2d115815
DTITLE=Various Artist - House Concert
DYEAR=2008
DGENRE=Country
TTITLE0=James Blundell - Portrait of a Man
TTITLE1=James Blundell - Down on the Farm
TTITLE2=Talia Wittmann - Nothing but the Wheel
TTITLE3=Talia Wittmann - I can say that Now
TTITLE4=Rob Black -  The regular Guy
TTITLE5=Rob Black - We have Kids
TTITLE6=The Sunny Cowgirls - Dancing on the Darling
TTITLE7=The Sunny Cowgirls - Old Silo
TTITLE8=The Sunny Cowgirls - Someday Blooper
TTITLE9=The Sunny Cowgirls&Adam Brand - Someday
TTITLE10=Peter Denahy - Granny's bric a brac
TTITLE11=Peter Denahy - Petrol head Fly
TTITLE12=Peter Denahy - Sort of dunno Nothin'
TTITLE13=Kirsty Lee Akers - She ain't gettin' Any
TTITLE14=Kirsty Lee Akers - The Territory
TTITLE15=Kirsty Lee Akers - I dream he dreams of Me
TTITLE16=Adam Brand - Blame it on Eve
TTITLE17=Adam Brand - Wasted Day
TTITLE18=Adam Brand - Get on down the Road
TTITLE19=Finale - Good Friends
TTITLE20=Finale - Way out West
EXTD=
EXTT0=
EXTT1=
EXTT2=
EXTT3=
EXTT4=
EXTT5=
EXTT6=
EXTT7=
EXTT8=
EXTT9=
EXTT10=
EXTT11=
EXTT12=
EXTT13=
EXTT14=
EXTT15=
EXTT16=
EXTT17=
EXTT18=
EXTT19=
EXTT20=
PLAYORDER=
